<svg width="33" height="34" viewBox="0 0 33 34" fill="none" xmlns="http://www.w3.org/2000/svg">
<path d="M16.5 29.1797C23.3345 29.1797 28.875 23.6392 28.875 16.8047C28.875 9.97016 23.3345 4.42969 16.5 4.42969C9.66548 4.42969 4.125 9.97016 4.125 16.8047C4.125 23.6392 9.66548 29.1797 16.5 29.1797Z" stroke="#2E2A2A" stroke-width="1.5" stroke-linecap="round" stroke-linejoin="round"/>
<path d="M16.5 20.9297C19.3477 20.9297 21.6562 18.6212 21.6562 15.7734C21.6562 12.9257 19.3477 10.6172 16.5 10.6172C13.6523 10.6172 11.3438 12.9257 11.3438 15.7734C11.3438 18.6212 13.6523 20.9297 16.5 20.9297Z" stroke="#2E2A2A" stroke-width="1.5" stroke-linecap="round" stroke-linejoin="round"/>
<path d="M8.22412 26.0084C9.00002 24.4801 10.184 23.1965 11.6447 22.2999C13.1054 21.4033 14.7859 20.9287 16.4999 20.9287C18.2139 20.9287 19.8944 21.4033 21.3551 22.2999C22.8158 23.1965 23.9998 24.4801 24.7757 26.0084" stroke="#2E2A2A" stroke-width="1.5" stroke-linecap="round" stroke-linejoin="round"/>
</svg>
